<?xml version="1.0" encoding="UTF-8"?>
<svg id="_图层_1" data-name="图层_1" xmlns="http://www.w3.org/2000/svg" xmlns:xlink="http://www.w3.org/1999/xlink" viewBox="0 0 16 16">
  <defs>
    <style>
      .cls-1 {
        fill: none;
      }

      .cls-2 {
        fill: #2c5bff;
      }

      .cls-3 {
        fill: #fff;
      }

      .cls-4 {
        clip-path: url(#clippath);
      }
    </style>
    <clipPath id="clippath">
      <rect class="cls-1" x="2.13" y="4.35" width="11.74" height="7.31"/>
    </clipPath>
  </defs>
  <circle class="cls-2" cx="8" cy="8" r="8"/>
  <g class="cls-4">
    <path class="cls-3" d="M13.55,7.25h-3.03c-.17,0-.31.14-.31.31v1.27c0,.17.14.31.31.31h1.28c-.17.29-.52.53-1.12.52-.77-.01-1.32-.55-1.39-1.32,0-.06,0-.13,0-.21,0-.99-.31-1.85-.84-2.5.09.03.2.01.28-.05.52-.4,1.18-.61,1.98-.61.73,0,1.44.25,2.02.69l-.51.58c-.47-.35-1.17-.49-1.53-.48-.67,0-1.19.24-1.54.68-.11.14-.09.33.05.44.14.11.33.09.44-.05.23-.29.59-.44,1.05-.44.31,0,1.04.15,1.29.49.06.08.14.12.23.13,0,0,.01,0,.02,0,.09,0,.18-.04.24-.11l.94-1.07c.11-.13.1-.32-.02-.44-.74-.68-1.69-1.06-2.68-1.06-.93,0-1.75.26-2.37.74-.07.05-.11.13-.12.21,0,.03,0,.06,0,.09-.63-.64-1.51-1.01-2.52-1.01-2.11,0-3.58,1.5-3.58,3.64s1.47,3.64,3.58,3.64c.81,0,1.55-.21,2.14-.61.11-.07.12-.19.13-.24.01-.06,0-.12-.03-.17.12.12.24.23.38.33,0,0,.01,0,.01.01.59.44,1.32.67,2.11.67.62,0,1.14-.12,1.65-.39v.02c0,.17.14.31.31.31h1.13c.17,0,.31-.14.31-.31v-3.7c0-.17-.14-.31-.31-.31M7.6,10.46c-.05.02-.08.03-.13.06l-.03.02c-.47.3-1.06.45-1.73.45-1.74,0-2.91-1.2-2.91-2.98s1.17-2.98,2.91-2.98,2.92,1.27,2.92,3.1c0,.19.02.32.05.43.16,1.03.93,1.72,1.99,1.74h.02c1.18,0,1.78-.71,1.85-1.42,0-.09-.02-.18-.08-.24-.06-.07-.14-.1-.23-.1l-1.39-.02v-.64h2.4v3.07h-.5v-.27c0-.12-.07-.23-.17-.28-.11-.05-.23-.04-.33.03-.57.41-1.09.58-1.78.58-.65,0-1.24-.18-1.72-.53,0,0-.02-.01-.02-.02-.15-.11-.28-.22-.4-.35-.41-.45-.67-1.21-.67-1.96,0-.15.01-.4.03-.55.02-.17-.1-.33-.27-.36-.17-.02-.33.09-.35.27-.03.19-.04.46-.04.64,0,.89.31,1.78.8,2.35-.05-.03-.1-.05-.16-.05-.01,0-.05,0-.07,0"/>
  </g>
</svg>