<?xml version="1.0" encoding="UTF-8"?>
<svg id="_图层_2" data-name="图层_2" xmlns="http://www.w3.org/2000/svg" viewBox="0 0 300 184.71">
  <defs>
    <style>
      .cls-1 {
        fill: #2e5bff;
      }
    </style>
  </defs>
  <g id="_图层_1-2" data-name="图层_1">
    <g>
      <path class="cls-1" d="M173.16,23.57c13.3-8.11,29.18-12.23,47.18-12.23,20.45,0,40.19,7.15,56.16,20.23l-16.64,18.97c-11.85-10.18-31.13-13.68-40.03-13.36-16.71.19-25.91,5.7-32.7,11.06-2.46,1.94-2.88,5.51-.94,7.97,1.94,2.46,5.51,2.88,7.97.94,5.18-4.09,11.87-8.46,25.8-8.62,10.16.1,28.76,4.74,35.53,13.82,1.02,1.37,2.61,2.21,4.32,2.27.07,0,.15,0,.22,0,1.63,0,3.18-.7,4.26-1.93l24.48-27.92c2.03-2.31,1.84-5.82-.42-7.9C269.63,9.54,245.47,0,220.34,0c-20.12,0-37.98,4.67-53.09,13.88-2.67,1.63-3.52,5.12-1.89,7.8,1.63,2.67,5.13,3.51,7.8,1.89Z"/>
      <path class="cls-1" d="M294.33,75.46h-78.86c-3.13,0-5.67,2.54-5.67,5.67v32.98c0,3.11,2.5,5.64,5.61,5.67l37.27.4c-3.58,9.56-13.72,18.38-33.15,18.21-23.28-.34-38.92-17.02-38.92-41.51,0-.34-.05-2.4-.05-3.08C180.55,39.24,143.36.93,90.25.93S0,38.72,0,92.82s37.11,91.89,90.25,91.89c19.59,0,35.09-3.79,48.77-11.92,1.85-1.1,2.07-3.07,2.17-4.02.37-2.21-.74-3.97-1.78-4.91-1.3-1.15-2.89-1.28-3.52-1.28-.41,0-.78.05-1.1.14l-.39.11c-.8.22-.91.27-1.73.69l-.92.5c-.38.21-.8.44-.97.52-10.96,5.25-21.56,8.51-40.53,8.51-47.01,0-78.59-32.24-78.59-80.23S43.24,12.59,90.25,12.59s78.85,34.29,78.85,83.38c0,2.43.14,4.59.4,6.46,2.33,27.73,22.18,46.9,49.87,47.3,29.16.56,44.31-17.07,46.04-34.59.16-1.58-.36-3.16-1.42-4.34-1.06-1.18-2.57-1.87-4.16-1.89l-38.68-.42v-21.7h67.52v84.93h-18.06v-9.56c0-2.13-1.19-4.08-3.09-5.05-1.89-.97-4.18-.8-5.9.45-15.36,11.08-29.18,15.59-47.7,15.59-17.42,0-33.38-4.94-46.2-14.3-.18-.17-.38-.33-.58-.47-4.07-2.87-7.7-6.06-10.78-9.46-10.94-12.1-18.01-32.78-18.01-52.68,0-4.05.31-10.59.89-14.73.43-3.1-1.73-5.97-4.83-6.4-3.13-.44-5.97,1.73-6.4,4.83-.66,4.7-1,11.76-1,16.3,0,22.9,8.02,46,20.94,60.29,3.51,3.88,7.58,7.49,12.12,10.74.13.11.26.22.4.32,14.87,11.05,33.36,16.9,53.46,16.9,17.2,0,31.27-3.61,45.34-11.85v4.75c0,3.13,2.54,5.67,5.67,5.67h29.41c3.13,0,5.67-2.54,5.67-5.67v-96.27c0-3.13-2.54-5.67-5.67-5.67Z"/>
    </g>
  </g>
</svg>